<svg xmlns="http://www.w3.org/2000/svg" viewBox="420 38 110 110">
<defs>
<linearGradient id="verse-grad" x1="0" y1="0" x2="1" y2="1">
<stop offset="0%" stop-color="#06b6d4"/>
<stop offset="40%" stop-color="#3b82f6"/>
<stop offset="70%" stop-color="#7c3aed"/>
<stop offset="100%" stop-color="#d946ef"/>
</linearGradient>
</defs>
<path d="M504.0156,137.65a5.582,5.582,0,0,0,4.2656-1.3817,54.978,54.978,0,0,0,12.145-67.3189c-.0709-.13-.1416-.2609-.2135-.3906-.3031-.5522-.62-1.0959-.941-1.6364-.14-.2351-.2785-.4711-.4217-.7042a54.9806,54.9806,0,0,0-69.048-21.541c23.8078,2.86,44.955,19.9154,44.955,19.9154L504.91,56.34l-3.5558,44.0828L468.603,87.4437l11.5-9.91c-13.7449-18.1759-27.2476-24.9385-38.7685-26.3256a5.5949,5.5949,0,0,0-4.206,1.26,54.9761,54.9761,0,0,0-15.0439,65.58A61.245,61.245,0,0,0,428.8,128.98a54.9779,54.9779,0,0,0,67.26,15.4412c-25.0771-2.4371-47.6223-20.7075-47.6223-20.7075l-10.5365,8.4684,3.743-45.3182,33.6869,13.3718-11.8279,10.2C477.8949,129.493,492.0281,136.3722,504.0156,137.65Z" fill="url(#verse-grad)"/>
</svg>